<?xml version="1.0" encoding="utf-8"?>
<!-- Generator: Adobe Illustrator 18.0.0, SVG Export Plug-In . SVG Version: 6.00 Build 0)  -->
<!DOCTYPE svg PUBLIC "-//W3C//DTD SVG 1.1//EN" "http://www.w3.org/Graphics/SVG/1.1/DTD/svg11.dtd">
<svg version="1.1" id="Layer_1" xmlns="http://www.w3.org/2000/svg" xmlns:xlink="http://www.w3.org/1999/xlink" x="0px" y="0px"
	 viewBox="0 0 221.6 249.3" enable-background="new 0 0 221.6 249.3" xml:space="preserve">
<g>
	<g id="_x37_io41R.tif">
		<g>
			<linearGradient id="SVGID_1_" gradientUnits="userSpaceOnUse" x1="123.6994" y1="157.7392" x2="123.6994" y2="55.7164">
				<stop  offset="0" style="stop-color:#F69668"/>
				<stop  offset="1" style="stop-color:#F05E64"/>
			</linearGradient>
			<path fill="url(#SVGID_1_)" d="M127.1,55.7c0.4,0.1,0.9,0.1,1.3,0.1c1.9,0.2,3.8,0.6,5.6,1.1c4,1.2,7.7,3.2,10.9,5.9
				c2.1,1.7,3.9,3.5,5.6,5.6c2.2,2.8,4.1,5.8,5.6,9c1.7,3.5,2.8,7.2,3.7,11c0.5,2.2,0.9,4.5,1.1,6.8c0.1,0.8,0.2,1.6,0.2,2.5
				c0,0.3,0,0.4-0.3,0.3c-0.4-0.1-0.8-0.3-1.2-0.4c-2.2-0.7-4.5-1.4-6.8-2c-0.4-0.1-0.4-0.1-0.5-0.6c-0.4-3.8-1.4-7.5-2.8-11.1
				c-1.1-3-2.6-5.8-4.3-8.5c-0.9-1.3-1.9-2.6-2.9-3.8c-1.5-1.7-3.2-3.2-5.2-4.5c-2.2-1.4-4.6-2.4-7.2-2.9c-1.6-0.3-3.3-0.4-4.9-0.3
				c-2.2,0.2-4.4,0.6-6.6,1.2c-2.1,0.6-4.2,1.4-6.1,2.4c-2.4,1.3-4.6,2.8-6.5,4.8c-0.9,1-1.7,2.1-2.5,3.2c-1.6,2.2-3,4.6-4.2,7.1
				c-1.4,3-2.5,6.2-3.2,9.5c-0.4,1.9-0.8,3.9-1,5.8c-0.1,1.3-0.2,2.5-0.3,3.8c-0.1,1.9-0.1,3.8-0.1,5.7c0,1.2,0.1,2.5,0.2,3.7
				c0.1,1.8,0.4,3.6,0.7,5.3c0.4,2.6,1.1,5.2,1.8,7.7c1,3.2,2.2,6.4,3.7,9.4c0.7,1.5,1.5,3,2.4,4.4c0.2,0.3,0.3,0.4,0.6,0.3
				c1.5-0.2,2.9-0.1,4.3,0.5c3.7,1.4,5.9,4,6.4,7.9c0.4,2.8-0.4,5.3-2.2,7.5c-1.6,1.9-3.7,3-6.2,3.3c-3.1,0.3-5.7-0.6-7.9-2.7
				c-1.7-1.6-2.6-3.6-2.9-5.9c-0.2-1.9,0.1-3.7,1-5.4c0.2-0.4,0.2-0.6,0-1c-2.3-4-4.3-8.2-5.9-12.5c-1.5-4.1-2.7-8.4-3.5-12.8
				c-0.3-1.7-0.5-3.3-0.7-5c-0.2-1.8-0.3-3.5-0.3-5.3c0-0.7-0.1-1.4,0-2.1c0.1-1.5,0.1-3,0.2-4.6c0.3-4,1-8,2.1-11.9
				c0.9-3.3,2-6.5,3.5-9.7c1.5-3.3,3.4-6.3,5.7-9.1c1.3-1.6,2.6-3,4.1-4.4c2.4-2.2,5-4.1,7.8-5.6c3.2-1.7,6.5-2.9,10.1-3.6
				c1.3-0.2,2.6-0.4,3.9-0.5c0.1,0,0.2,0,0.4-0.1C124.9,55.7,126,55.7,127.1,55.7z"/>
			<linearGradient id="SVGID_2_" gradientUnits="userSpaceOnUse" x1="110.1839" y1="183.8295" x2="110.1839" y2="115.9325">
				<stop  offset="0" style="stop-color:#F69668"/>
				<stop  offset="1" style="stop-color:#F05E64"/>
			</linearGradient>
			<path fill="url(#SVGID_2_)" d="M59,149.4c0.1-0.2,0.1-0.5,0.1-0.8c0.2-3.6,1-7,2.1-10.3c1-2.7,2.2-5.3,3.7-7.7
				c1.3-2.2,2.9-4.2,4.6-6.2c1.1-1.2,2.2-2.4,3.4-3.5c1.8-1.7,3.8-3.3,5.8-4.8c0,0,0,0,0.1,0c0.2-0.2,0.3-0.1,0.4,0.1
				c0,0.1,0,0.1,0,0.2c0.6,2.6,1.2,5.1,2,7.7c0.2,0.7,0.2,0.6-0.3,1.1c-1.1,0.9-2.1,1.8-3.1,2.7c-2.3,2.2-4.3,4.6-6,7.2
				c-1.7,2.6-3.1,5.3-4,8.3c-0.5,1.7-0.9,3.4-1,5.1c-0.1,0.8-0.1,1.7-0.1,2.5c0,3.4,0.8,6.7,2.2,9.8c0.9,1.9,1.9,3.7,3.2,5.4
				c2,2.6,4.4,4.6,7.3,6.1c2.6,1.4,5.5,2.2,8.4,2.7c1.4,0.2,2.8,0.3,4.2,0.4c1.4,0.1,2.9,0.1,4.3,0c2.5-0.1,4.9-0.4,7.4-0.9
				c3.7-0.8,7.2-2,10.7-3.6c3.2-1.5,6.2-3.2,9.1-5c2.4-1.5,4.8-3.2,7-5c2.1-1.7,4.1-3.6,5.9-5.6c2.2-2.4,4.1-4.9,5.9-7.6
				c0.9-1.5,1.8-3,2.6-4.5c0.2-0.4,0.2-0.4-0.1-0.7c-1.2-1.4-2.1-3-2.4-4.9c-0.5-3,0.3-5.6,2.2-7.9c1.6-1.8,3.6-2.9,6-3.3
				c2.8-0.4,5.3,0.4,7.5,2.2c1.8,1.5,2.9,3.5,3.3,5.8c0.4,2.6-0.1,5-1.7,7.2c-1.6,2.2-3.7,3.5-6.3,3.9c-0.3,0.1-0.5,0.2-0.6,0.5
				c-1.5,3-3.2,5.9-5.1,8.7c-1.4,2.1-3,4-4.6,5.9c-1.4,1.7-2.9,3.2-4.5,4.7c-2.1,2-4.3,3.8-6.6,5.5c-2.2,1.6-4.4,3-6.7,4.3
				c-2.8,1.6-5.8,2.9-8.8,4.1c-3.1,1.2-6.3,2.2-9.5,2.9c-2,0.5-4,0.9-6,1.2c-1.3,0.2-2.6,0.3-3.9,0.4c-1.3,0.1-2.5,0.1-3.8,0.1
				c-1.8,0-3.5-0.2-5.3-0.5c-2.6-0.4-5.2-1-7.7-1.9c-3.8-1.3-7.3-3.2-10.4-5.8c-2.7-2.2-5-4.9-6.6-8.1c-1.7-3.3-2.8-6.7-3.4-10.3
				c-0.2-1.4-0.4-2.8-0.5-4.2c0-0.1,0-0.3-0.1-0.4C59,151.6,59,150.5,59,149.4z"/>
			<linearGradient id="SVGID_3_" gradientUnits="userSpaceOnUse" x1="150.8773" y1="184.0634" x2="150.8773" y2="95.4335">
				<stop  offset="0" style="stop-color:#F69668"/>
				<stop  offset="1" style="stop-color:#F05E64"/>
			</linearGradient>
			<path fill="url(#SVGID_3_)" d="M155.5,184.1c-0.4-0.1-0.8-0.1-1.2-0.1c-1.5-0.1-3-0.3-4.4-0.5c-2.8-0.5-5.6-1.2-8.3-2.1
				c-2-0.7-3.9-1.4-5.7-2.3c0,0-0.1,0-0.1-0.1c-0.2-0.1-0.2-0.2,0-0.4c0.4-0.3,0.9-0.7,1.3-1c1.7-1.3,3.3-2.5,4.9-3.9
				c0.3-0.3,0.7-0.6,1-0.9c0.2-0.2,0.4-0.2,0.7-0.1c1.4,0.6,2.8,1.1,4.2,1.5c2.4,0.8,4.9,1.3,7.5,1.6c1.9,0.2,3.7,0.4,5.6,0.3
				c3.8-0.1,7.5-0.8,10.9-2.4c2.4-1.1,4.5-2.5,6.4-4.3c2.1-2,3.8-4.3,5.2-6.9c1.1-2,1.9-4.1,2.3-6.3c0.4-1.8,0.5-3.7,0.4-5.5
				c-0.2-3.4-1.1-6.6-2.4-9.7c-1.2-2.8-2.6-5.5-4.4-8c-1.1-1.6-2.3-3.1-3.5-4.5c-1.1-1.2-2.2-2.4-3.4-3.5c-1.6-1.4-3.2-2.8-5-4
				c-3-2.2-6.2-4.1-9.6-5.7c-5.1-2.5-10.4-4.3-16-5.4c-1.8-0.3-3.5-0.6-5.3-0.8c-1.3-0.1-2.6-0.2-3.9-0.3c-1.3-0.1-2.7-0.1-4-0.1
				c-0.7,0-1.4,0.1-2.1,0.1c-0.3,0-0.4,0.1-0.5,0.3c-0.4,0.8-0.9,1.6-1.5,2.3c-0.9,1-2,1.8-3.2,2.4c-1.6,0.7-3.2,1-4.9,0.8
				c-1.9-0.2-3.7-0.9-5.2-2.1c-2-1.6-3.2-3.8-3.5-6.3c-0.2-1.8,0-3.5,0.7-5.1c0.9-2.1,2.4-3.7,4.5-4.7c1.1-0.6,2.3-0.9,3.5-1
				c1.9-0.2,3.6,0.2,5.3,1c1.7,0.9,3,2.1,3.9,3.8c0.1,0.2,0.3,0.3,0.6,0.3c0.6-0.1,1.2-0.1,1.8-0.1c0.9,0,1.7,0,2.6,0
				c1.4,0.1,2.8,0.1,4.2,0.2c1.3,0.1,2.6,0.2,3.9,0.4c1.4,0.2,2.9,0.4,4.3,0.6c3.7,0.7,7.3,1.6,10.9,2.8c3.5,1.2,6.9,2.6,10.1,4.4
				c3.8,2,7.4,4.4,10.8,7.2c2.2,1.8,4.2,3.7,6.2,5.8c1.9,2,3.6,4,5.2,6.2c1.2,1.7,2.3,3.4,3.2,5.2c1.1,2.1,2.1,4.3,2.8,6.5
				c0.8,2.3,1.4,4.7,1.7,7.1c0.1,0.9,0.3,1.7,0.2,2.6c0,0.1,0,0.2,0.1,0.3c0,1.6,0,3.2,0,4.9c-0.1,0.4,0,0.7-0.1,1.1
				c-0.2,1.4-0.4,2.8-0.7,4.2c-0.6,2.4-1.5,4.8-2.8,6.9c-0.9,1.5-1.9,2.9-3.1,4.2c-1.1,1.3-2.4,2.5-3.7,3.6c-2.6,2.2-5.5,4-8.6,5.5
				c-2.2,1-4.4,1.8-6.7,2.4c-2.4,0.6-4.9,1.1-7.4,1.2c-0.4,0-0.8,0-1.2,0.1C158.3,184.1,156.9,184.1,155.5,184.1z"/>
		</g>
	</g>
	<linearGradient id="SVGID_4_" gradientUnits="userSpaceOnUse" x1="110.8028" y1="249.272" x2="110.8028" y2="-6.721166e-10">
		<stop  offset="0" style="stop-color:#F69668"/>
		<stop  offset="1" style="stop-color:#F05E64"/>
	</linearGradient>
	<path fill="url(#SVGID_4_)" d="M124.5,10.5C69.1,10.7,21.9,50.3,12.1,105c-11,60.9,30.4,121,91.3,131.6c43.1,7.5,79.2-6,108.3-38.6
		c2.4-2.7,5.3-3.3,7.7-1.7c2.8,1.9,3,5.3,0.5,8.3c-7.3,8.7-15.6,16.3-25,22.7c-22.6,15.4-47.7,22.6-75.1,21.8
		c-56.3-1.6-106.1-43.6-117.1-98.8C-10.6,84.5,28.2,21.2,92.7,4.4C131.8-5.8,167.8,1.9,200.3,26c1.8,1.3,3.3,2.2,5.8,1.6
		c5.6-1.2,11.1,1.8,13.6,6.8c2.5,5.1,1.5,11.2-2.7,15.1c-4.1,3.9-10,4.6-14.9,2c-5-2.6-7.5-8.1-6.6-13.9c0.1-0.9-0.4-2.3-1.1-2.8
		c-16.7-13-35.5-20.9-56.6-23.3C133.4,11.1,128.9,10.8,124.5,10.5z"/>
</g>
</svg>
